<svg width="11" height="10" viewBox="0 0 11 10" fill="none" xmlns="http://www.w3.org/2000/svg">
<path d="M1.44008 2.81554C1.48072 2.7748 1.52899 2.74248 1.58215 2.72042C1.6353 2.69836 1.69228 2.68701 1.74983 2.68701C1.80737 2.68701 1.86435 2.69836 1.91751 2.72042C1.97063 2.74246 2.01888 2.77477 2.05951 2.81548L2.05947 2.81544L1.97108 2.90381L2.05958 2.81554L1.44008 2.81554ZM1.44008 2.81554L1.52858 2.90382L1.44008 2.81554ZM5.6196 7.16427L5.66751 7.27972C5.61435 7.30177 5.55737 7.31313 5.49983 7.31313C5.44228 7.31313 5.3853 7.30177 5.33215 7.27972C5.27904 7.25768 5.23081 7.2254 5.19019 7.18471C5.19015 7.18467 5.19011 7.18463 5.19008 7.1846L1.4403 3.43482C1.44027 3.4348 1.44025 3.43477 1.44023 3.43475L5.6196 7.16427ZM5.6196 7.16427L5.66751 7.27972C5.72061 7.25768 5.76885 7.2254 5.80946 7.18471L5.6196 7.16427ZM8.94018 2.81544L5.49983 6.2564L5.80958 7.1846L9.55947 3.43471C9.60013 3.39405 9.63238 3.34577 9.65439 3.29264C9.6764 3.23952 9.68772 3.18257 9.68772 3.12507C9.68772 3.06757 9.6764 3.01062 9.65439 2.9575C9.63238 2.90437 9.60013 2.85609 9.55947 2.81543C9.5188 2.77477 9.47053 2.74251 9.4174 2.72051C9.36427 2.6985 9.30733 2.68718 9.24983 2.68718C9.19232 2.68718 9.13538 2.6985 9.08225 2.72051L9.13009 2.83599L9.08225 2.72051C9.02912 2.74251 8.98085 2.77477 8.94019 2.81543L8.94018 2.81544Z" fill="#1D252C" stroke="#1D252C" stroke-width="0.25"/>
</svg>
