<svg width="24" height="24" viewBox="0 0 24 24" fill="none" xmlns="http://www.w3.org/2000/svg">
<path d="M20.9321 13.4101C21.0078 12.9439 21.0454 12.4724 21.0446 12.0001C21.0446 9.6012 20.0917 7.30057 18.3954 5.6043C16.6992 3.90804 14.3985 2.95508 11.9996 2.95508C11.5274 2.95435 11.0558 2.99197 10.5896 3.06758C9.5442 2.44134 8.3195 2.18231 7.11002 2.33165C5.90054 2.48098 4.77563 3.03011 3.9139 3.89184C3.05218 4.75356 2.50305 5.87848 2.35371 7.08796C2.20438 8.29744 2.4634 9.52214 3.08965 10.5676C3.00527 11.0406 2.96012 11.5197 2.95465 12.0001C2.95465 14.399 3.9076 16.6996 5.60387 18.3959C7.30013 20.0921 9.60076 21.0451 11.9996 21.0451C12.4719 21.0458 12.9435 21.0082 13.4096 20.9326C14.4551 21.5588 15.6798 21.8179 16.8893 21.6685C18.0987 21.5192 19.2237 20.9701 20.0854 20.1083C20.9471 19.2466 21.4962 18.1217 21.6456 16.9122C21.7949 15.7027 21.5359 14.478 20.9096 13.4326L20.9321 13.4101ZM16.2971 16.1101C15.8738 16.6954 15.2904 17.1459 14.6171 17.4076C13.7864 17.7336 12.8993 17.8916 12.0071 17.8726C10.9687 17.9161 9.93554 17.7022 8.99965 17.2501C8.45401 16.9568 7.9861 16.5377 7.63465 16.0276C7.31271 15.5918 7.12974 15.069 7.10965 14.5276C7.10886 14.3871 7.13709 14.248 7.19259 14.1189C7.24808 13.9899 7.32964 13.8736 7.43215 13.7776C7.65931 13.5843 7.95174 13.485 8.24965 13.5001C8.49861 13.4954 8.74092 13.5806 8.93215 13.7401C9.14146 13.9359 9.3031 14.1771 9.40465 14.4451C9.53477 14.7583 9.70088 15.0553 9.89965 15.3301C10.0977 15.5838 10.3554 15.7847 10.6496 15.9151C11.0494 16.0866 11.4826 16.166 11.9171 16.1476C12.5361 16.1776 13.1492 16.0151 13.6721 15.6826C13.8728 15.565 14.0397 15.3976 14.1567 15.1965C14.2736 14.9955 14.3367 14.7677 14.3396 14.5351C14.3461 14.3722 14.3181 14.2098 14.2573 14.0586C14.1966 13.9074 14.1045 13.7707 13.9871 13.6576C13.7201 13.4116 13.399 13.2317 13.0496 13.1326C12.6596 13.0051 12.1421 12.8776 11.4896 12.7351C10.7403 12.5606 10.0094 12.3145 9.30715 12.0001C8.75457 11.7736 8.26732 11.4127 7.88965 10.9501C7.53144 10.4733 7.34628 9.88868 7.36465 9.29258C7.35859 8.68659 7.55379 8.09571 7.91965 7.61258C8.33754 7.09339 8.89405 6.70331 9.52465 6.48758C10.322 6.22275 11.1599 6.10087 11.9996 6.12758C12.6567 6.11596 13.3117 6.20448 13.9421 6.39008C14.4369 6.53699 14.9016 6.77062 15.3146 7.08008C15.6397 7.32421 15.9104 7.63325 16.1096 7.98758C16.2718 8.27381 16.3595 8.59617 16.3646 8.92508C16.3637 9.0653 16.3347 9.2039 16.2793 9.33271C16.2239 9.46152 16.1433 9.57794 16.0421 9.67508C15.9401 9.78568 15.8159 9.87355 15.6776 9.93299C15.5394 9.99243 15.3901 10.0221 15.2396 10.0201C14.9984 10.0389 14.7592 9.96361 14.5721 9.81008C14.3753 9.62046 14.2107 9.40008 14.0846 9.15758C13.8989 8.77533 13.6298 8.43959 13.2971 8.17508C12.8606 7.90295 12.3468 7.78174 11.8346 7.83008C11.309 7.80792 10.7881 7.93815 10.3346 8.20508C10.1699 8.29303 10.0309 8.42218 9.93096 8.57991C9.83106 8.73765 9.77376 8.91859 9.76465 9.10508C9.75871 9.30885 9.82514 9.50813 9.95215 9.66758C10.1017 9.8409 10.2856 9.98135 10.4921 10.0801C10.7121 10.1939 10.9434 10.2844 11.1821 10.3501C11.4221 10.4176 11.8121 10.5151 12.3596 10.6426C13.0496 10.7926 13.6646 10.9576 14.2271 11.1376C14.7303 11.2909 15.2098 11.513 15.6521 11.7976C16.038 12.0416 16.3554 12.3797 16.5746 12.7801C16.7975 13.2368 16.9008 13.7426 16.8746 14.2501C16.8814 14.9152 16.6794 15.5657 16.2971 16.1101V16.1101Z" fill="white"/>
</svg>
