<svg xmlns="http://www.w3.org/2000/svg">
  <g id="facebook">
    <path
      d="M13.4863 11.7812L13.8965 9.08594H11.2891V7.32812C11.2891 6.56641 11.6406 5.86328 12.8125 5.86328H14.0137V3.54883C14.0137 3.54883 12.9297 3.34375 11.9043 3.34375C9.76562 3.34375 8.35938 4.66211 8.35938 7.00586V9.08594H5.95703V11.7812H8.35938V18.3438H11.2891V11.7812H13.4863Z"
      fill="#14C88C"
    />
  </g>

  <g id="x">
    <path
      d="M13.8072 3.84399H16.0964L11.0964 9.59701L17 17.3982H12.3614L8.74699 12.6693L4.59036 17.3982H2.3012L7.66265 11.2536L2 3.84399H6.75904L10.0422 8.18134L13.8072 3.84399ZM12.994 16.0127H14.259L6.06627 5.13917H4.68072L12.994 16.0127Z"
      fill="#14C88C"
    />
  </g>

  <g id="instagram">
    <path
      d="M10 7.47461C8.125 7.47461 6.63086 8.99805 6.63086 10.8438C6.63086 12.7188 8.125 14.2129 10 14.2129C11.8457 14.2129 13.3691 12.7188 13.3691 10.8438C13.3691 8.99805 11.8457 7.47461 10 7.47461ZM10 13.041C8.79883 13.041 7.80273 12.0742 7.80273 10.8438C7.80273 9.64258 8.76953 8.67578 10 8.67578C11.2012 8.67578 12.168 9.64258 12.168 10.8438C12.168 12.0742 11.2012 13.041 10 13.041ZM14.2773 7.35742C14.2773 6.91797 13.9258 6.56641 13.4863 6.56641C13.0469 6.56641 12.6953 6.91797 12.6953 7.35742C12.6953 7.79688 13.0469 8.14844 13.4863 8.14844C13.9258 8.14844 14.2773 7.79688 14.2773 7.35742ZM16.5039 8.14844C16.4453 7.09375 16.2109 6.15625 15.4492 5.39453C14.6875 4.63281 13.75 4.39844 12.6953 4.33984C11.6113 4.28125 8.35938 4.28125 7.27539 4.33984C6.2207 4.39844 5.3125 4.63281 4.52148 5.39453C3.75977 6.15625 3.52539 7.09375 3.4668 8.14844C3.4082 9.23242 3.4082 12.4844 3.4668 13.5684C3.52539 14.623 3.75977 15.5312 4.52148 16.3223C5.3125 17.084 6.2207 17.3184 7.27539 17.377C8.35938 17.4355 11.6113 17.4355 12.6953 17.377C13.75 17.3184 14.6875 17.084 15.4492 16.3223C16.2109 15.5312 16.4453 14.623 16.5039 13.5684C16.5625 12.4844 16.5625 9.23242 16.5039 8.14844ZM15.0977 14.7109C14.8926 15.2969 14.4238 15.7363 13.8672 15.9707C12.9883 16.3223 10.9375 16.2344 10 16.2344C9.0332 16.2344 6.98242 16.3223 6.13281 15.9707C5.54688 15.7363 5.10742 15.2969 4.87305 14.7109C4.52148 13.8613 4.60938 11.8105 4.60938 10.8438C4.60938 9.90625 4.52148 7.85547 4.87305 6.97656C5.10742 6.41992 5.54688 5.98047 6.13281 5.74609C6.98242 5.39453 9.0332 5.48242 10 5.48242C10.9375 5.48242 12.9883 5.39453 13.8672 5.74609C14.4238 5.95117 14.8633 6.41992 15.0977 6.97656C15.4492 7.85547 15.3613 9.90625 15.3613 10.8438C15.3613 11.8105 15.4492 13.8613 15.0977 14.7109Z"
      fill="#14C88C"
    />
  </g>

  <g id="linkedin">
    <path
      d="M6.36719 16.4688V7.70898H3.64258V16.4688H6.36719ZM4.99023 6.53711C5.86914 6.53711 6.57227 5.80469 6.57227 4.92578C6.57227 4.07617 5.86914 3.37305 4.99023 3.37305C4.14062 3.37305 3.4375 4.07617 3.4375 4.92578C3.4375 5.80469 4.14062 6.53711 4.99023 6.53711ZM16.5332 16.4688H16.5625V11.6641C16.5625 9.32031 16.0352 7.50391 13.2812 7.50391C11.9629 7.50391 11.084 8.23633 10.7031 8.91016H10.6738V7.70898H8.06641V16.4688H10.791V12.1328C10.791 10.9902 10.9961 9.90625 12.4023 9.90625C13.8086 9.90625 13.8379 11.1953 13.8379 12.2207V16.4688H16.5332Z"
      fill="#14C88C"
    />
  </g>

  <g id="youtube">
    <path
      d="M17.6465 7.00586C17.4707 6.30273 16.9141 5.74609 16.2402 5.57031C14.9805 5.21875 10 5.21875 10 5.21875C10 5.21875 4.99023 5.21875 3.73047 5.57031C3.05664 5.74609 2.5 6.30273 2.32422 7.00586C1.97266 8.23633 1.97266 10.873 1.97266 10.873C1.97266 10.873 1.97266 13.4805 2.32422 14.7402C2.5 15.4434 3.05664 15.9707 3.73047 16.1465C4.99023 16.4688 10 16.4688 10 16.4688C10 16.4688 14.9805 16.4688 16.2402 16.1465C16.9141 15.9707 17.4707 15.4434 17.6465 14.7402C17.998 13.4805 17.998 10.873 17.998 10.873C17.998 10.873 17.998 8.23633 17.6465 7.00586ZM8.35938 13.2461V8.5L12.5195 10.873L8.35938 13.2461Z"
      fill="#14C88C"
    />
  </g>
</svg>
