<svg width="195" height="57" viewBox="0 0 195 57" fill="none" xmlns="http://www.w3.org/2000/svg">
<path d="M28.0005 52.1775C39.5985 52.1775 49.0005 42.7755 49.0005 31.1775C49.0005 19.5795 39.5985 10.1775 28.0005 10.1775C16.4025 10.1775 7.00049 19.5795 7.00049 31.1775C7.00049 42.7755 16.4025 52.1775 28.0005 52.1775Z" stroke="#14C88C" stroke-width="3.5" stroke-linecap="round"/>
<path d="M11.6672 45.1775L7.00049 49.8442M44.3338 45.1775L49.0005 49.8442" stroke="#14C88C" stroke-width="3.5" stroke-linecap="round" stroke-linejoin="round"/>
<path d="M44.3337 9.17305L45.7232 8.4783C47.6955 7.49217 48.4364 7.60503 50.0044 9.17305C51.5724 10.7411 51.6853 11.482 50.699 13.4543L50.0044 14.8438M11.667 9.17305L10.2775 8.4783C8.30522 7.49217 7.5643 7.60503 5.9963 9.17305C4.42827 10.7411 4.31541 11.482 5.30155 13.4543L5.9963 14.8438" stroke="#14C88C" stroke-width="3.5" stroke-linecap="round"/>
<path d="M28.0005 23.01V32.3433L32.6672 37.01" stroke="#14C88C" stroke-width="3.5" stroke-linecap="round" stroke-linejoin="round"/>
<path d="M28.0005 9.01001V5.51001" stroke="#14C88C" stroke-width="3.5" stroke-linecap="round" stroke-linejoin="round"/>
<path d="M23.334 5.51001H32.6673" stroke="#14C88C" stroke-width="3.5" stroke-linecap="round" stroke-linejoin="round"/>
<path d="M74.9219 40.8438H71.1562V21.1875H64.4688V18H81.5938V21.1875H74.9219V40.8438ZM93.1644 23.2188C93.456 23.2188 93.7738 23.2344 94.1175 23.2656C94.4613 23.2969 94.7581 23.3385 95.0081 23.3906L94.6644 26.8281C94.4456 26.7656 94.1748 26.7188 93.8519 26.6875C93.5394 26.6562 93.2581 26.6406 93.0081 26.6406C92.3519 26.6406 91.7269 26.75 91.1331 26.9688C90.5394 27.1771 90.0133 27.5 89.555 27.9375C89.0967 28.3646 88.7373 28.901 88.4769 29.5469C88.2165 30.1927 88.0863 30.9427 88.0863 31.7969V40.8438H84.3988V23.5469H87.2738L87.7738 26.5938H87.9456C88.2894 25.9792 88.7165 25.4167 89.2269 24.9062C89.7373 24.3958 90.3206 23.9896 90.9769 23.6875C91.6435 23.375 92.3727 23.2188 93.1644 23.2188ZM104.673 23.2188C106.86 23.2188 108.511 23.7031 109.626 24.6719C110.751 25.6406 111.313 27.151 111.313 29.2031V40.8438H108.704L108.001 38.3906H107.876C107.386 39.0156 106.881 39.5312 106.36 39.9375C105.839 40.3438 105.235 40.6458 104.548 40.8438C103.87 41.0521 103.042 41.1562 102.063 41.1562C101.032 41.1562 100.11 40.9688 99.2975 40.5938C98.485 40.2083 97.8444 39.625 97.3756 38.8438C96.9069 38.0625 96.6725 37.0729 96.6725 35.875C96.6725 34.0938 97.334 32.7552 98.6569 31.8594C99.9902 30.9635 102.001 30.4688 104.688 30.375L107.688 30.2656V29.3594C107.688 28.1615 107.407 27.3073 106.844 26.7969C106.292 26.2865 105.511 26.0312 104.501 26.0312C103.636 26.0312 102.798 26.1562 101.985 26.4062C101.173 26.6562 100.381 26.9635 99.61 27.3281L98.4225 24.7344C99.2663 24.2865 100.225 23.9219 101.298 23.6406C102.381 23.3594 103.506 23.2188 104.673 23.2188ZM107.673 32.5781L105.438 32.6562C103.605 32.7188 102.318 33.0312 101.579 33.5938C100.839 34.1562 100.469 34.9271 100.469 35.9062C100.469 36.7604 100.725 37.3854 101.235 37.7812C101.745 38.1667 102.417 38.3594 103.251 38.3594C104.521 38.3594 105.574 38 106.407 37.2812C107.251 36.5521 107.673 35.4844 107.673 34.0781V32.5781ZM123.103 41.1562C121.467 41.1562 120.05 40.8385 118.853 40.2031C117.655 39.5677 116.733 38.5938 116.087 37.2812C115.441 35.9688 115.118 34.3021 115.118 32.2812C115.118 30.1771 115.472 28.4583 116.181 27.125C116.889 25.7917 117.868 24.8073 119.118 24.1719C120.379 23.5365 121.821 23.2188 123.446 23.2188C124.478 23.2188 125.41 23.3229 126.243 23.5312C127.087 23.7292 127.8 23.974 128.384 24.2656L127.29 27.2031C126.655 26.9427 126.004 26.724 125.337 26.5469C124.67 26.3698 124.03 26.2812 123.415 26.2812C122.405 26.2812 121.561 26.5052 120.884 26.9531C120.217 27.401 119.717 28.0677 119.384 28.9531C119.061 29.8385 118.899 30.9375 118.899 32.25C118.899 33.5208 119.066 34.5938 119.399 35.4688C119.733 36.3333 120.228 36.9896 120.884 37.4375C121.54 37.875 122.347 38.0938 123.306 38.0938C124.254 38.0938 125.103 37.9792 125.853 37.75C126.603 37.5208 127.311 37.224 127.978 36.8594V40.0469C127.321 40.4219 126.618 40.6979 125.868 40.875C125.118 41.0625 124.196 41.1562 123.103 41.1562ZM135.392 16.5312V28.2812C135.392 28.8125 135.371 29.3958 135.329 30.0312C135.288 30.6562 135.246 31.2448 135.204 31.7969H135.283C135.553 31.4323 135.876 31.0052 136.251 30.5156C136.637 30.026 137.001 29.599 137.345 29.2344L142.626 23.5469H146.845L139.923 30.9844L147.298 40.8438H142.986L137.454 33.25L135.392 35.0156V40.8438H131.72V16.5312H135.392ZM159.978 40.8438L153.4 21.7656H153.259C153.291 22.1927 153.327 22.776 153.369 23.5156C153.41 24.2552 153.447 25.0469 153.478 25.8906C153.509 26.7344 153.525 27.5417 153.525 28.3125V40.8438H150.119V18H155.384L161.713 36.2344H161.806L168.353 18H173.603V40.8438H170.025V28.125C170.025 27.4271 170.035 26.6719 170.056 25.8594C170.088 25.0469 170.119 24.276 170.15 23.5469C170.192 22.8177 170.223 22.2344 170.244 21.7969H170.119L163.291 40.8438H159.978ZM185.814 23.2188C187.356 23.2188 188.679 23.5365 189.783 24.1719C190.887 24.8073 191.736 25.7083 192.33 26.875C192.924 28.0417 193.221 29.4375 193.221 31.0625V33.0312H181.674C181.715 34.7083 182.163 36 183.018 36.9062C183.882 37.8125 185.09 38.2656 186.643 38.2656C187.747 38.2656 188.736 38.1615 189.611 37.9531C190.497 37.7344 191.408 37.4167 192.346 37V39.9844C191.481 40.3906 190.601 40.6875 189.705 40.875C188.809 41.0625 187.736 41.1562 186.486 41.1562C184.788 41.1562 183.294 40.8281 182.002 40.1719C180.721 39.5052 179.715 38.5156 178.986 37.2031C178.268 35.8906 177.908 34.2604 177.908 32.3125C177.908 30.375 178.236 28.7292 178.893 27.375C179.549 26.0208 180.471 24.9896 181.658 24.2812C182.846 23.5729 184.231 23.2188 185.814 23.2188ZM185.814 25.9844C184.658 25.9844 183.721 26.3594 183.002 27.1094C182.294 27.8594 181.877 28.9583 181.752 30.4062H189.627C189.616 29.5417 189.471 28.776 189.189 28.1094C188.919 27.4427 188.502 26.9219 187.939 26.5469C187.387 26.1719 186.679 25.9844 185.814 25.9844Z" fill="#14C88C"/>
</svg>
