<svg viewBox="0 0 125 34" fill="none" xmlns="http://www.w3.org/2000/svg">
    <path d="M40 15.607C40 14.3842 40.2806 13.292 40.8417 12.3304C41.415 11.3569 42.1896 10.6031 43.1655 10.0688C44.1536 9.52273 45.2575 9.24968 46.4773 9.24968C47.9046 9.24968 49.1549 9.60584 50.2284 10.3181C51.3018 11.0305 52.052 12.0158 52.479 13.2742H49.533C49.2403 12.6806 48.8255 12.2354 48.2888 11.9386C47.7643 11.6418 47.1544 11.4935 46.459 11.4935C45.7149 11.4935 45.0501 11.6656 44.4646 12.0099C43.8913 12.3423 43.4399 12.8172 43.1106 13.4345C42.7934 14.0518 42.6349 14.776 42.6349 15.607C42.6349 16.4262 42.7934 17.1504 43.1106 17.7796C43.4399 18.3969 43.8913 18.8777 44.4646 19.222C45.0501 19.5544 45.7149 19.7206 46.459 19.7206C47.1544 19.7206 47.7643 19.5722 48.2888 19.2754C48.8255 18.9668 49.2403 18.5156 49.533 17.922H52.479C52.052 19.1923 51.3018 20.1836 50.2284 20.8959C49.1671 21.5964 47.9168 21.9466 46.4773 21.9466C45.2575 21.9466 44.1536 21.6795 43.1655 21.1452C42.1896 20.5991 41.415 19.8453 40.8417 18.8837C40.2806 17.922 40 16.8298 40 15.607Z"
          fill="var(--color-green)"/>
    <path d="M54.0082 16.8714C54.0082 15.8741 54.2095 14.9897 54.6121 14.218C55.0268 13.4464 55.5818 12.8528 56.2771 12.4373C56.9846 12.0217 57.7714 11.814 58.6375 11.814C59.3938 11.814 60.0525 11.9624 60.6137 12.2592C61.187 12.556 61.6444 12.9299 61.986 13.3811V11.9743H64.5659V21.8397H61.986V20.3973C61.6566 20.8603 61.1992 21.2461 60.6137 21.5548C60.0403 21.8516 59.3755 22 58.6192 22C57.7653 22 56.9846 21.7863 56.2771 21.3589C55.5818 20.9315 55.0268 20.332 54.6121 19.5603C54.2095 18.7768 54.0082 17.8805 54.0082 16.8714ZM61.986 16.907C61.986 16.3015 61.864 15.7851 61.62 15.3577C61.3761 14.9185 61.0467 14.5861 60.632 14.3605C60.2172 14.1231 59.772 14.0043 59.2962 14.0043C58.8205 14.0043 58.3814 14.1171 57.9788 14.3427C57.5763 14.5683 57.2469 14.9007 56.9907 15.3399C56.7468 15.7673 56.6248 16.2778 56.6248 16.8714C56.6248 17.465 56.7468 17.9873 56.9907 18.4385C57.2469 18.8777 57.5763 19.2161 57.9788 19.4535C58.3936 19.6909 58.8327 19.8097 59.2962 19.8097C59.772 19.8097 60.2172 19.6969 60.632 19.4713C61.0467 19.2339 61.3761 18.9015 61.62 18.4741C61.864 18.0348 61.986 17.5125 61.986 16.907Z"
          fill="var(--color-green)"/>
    <path d="M72.6852 11.8318C73.8928 11.8318 74.8687 12.2058 75.6128 12.9537C76.3569 13.6897 76.729 14.7226 76.729 16.0522V21.8397H74.1673V16.3906C74.1673 15.607 73.966 15.0075 73.5635 14.592C73.1609 14.1646 72.612 13.9509 71.9167 13.9509C71.2092 13.9509 70.6481 14.1646 70.2333 14.592C69.8308 15.0075 69.6295 15.607 69.6295 16.3906V21.8397H67.0678V11.9743H69.6295V13.203C69.9711 12.7756 70.4041 12.4432 70.9286 12.2058C71.4654 11.9565 72.0509 11.8318 72.6852 11.8318Z"
          fill="var(--color-green)"/>
    <path d="M78.5063 16.8714C78.5063 15.8741 78.7075 14.9897 79.1101 14.218C79.5248 13.4464 80.086 12.8528 80.7935 12.4373C81.501 12.0217 82.2878 11.814 83.1539 11.814C83.8126 11.814 84.4408 11.9565 85.0385 12.2414C85.6362 12.5144 86.112 12.8825 86.4657 13.3455V8.66203H89.064V21.8397H86.4657V20.3795C86.1486 20.8662 85.7033 21.258 85.13 21.5548C84.5567 21.8516 83.8919 22 83.1356 22C82.2817 22 81.501 21.7863 80.7935 21.3589C80.086 20.9315 79.5248 20.332 79.1101 19.5603C78.7075 18.7768 78.5063 17.8805 78.5063 16.8714ZM86.484 16.907C86.484 16.3015 86.362 15.7851 86.1181 15.3577C85.8741 14.9185 85.5447 14.5861 85.13 14.3605C84.7152 14.1231 84.27 14.0043 83.7943 14.0043C83.3185 14.0043 82.8794 14.1171 82.4768 14.3427C82.0743 14.5683 81.7449 14.9007 81.4888 15.3399C81.2448 15.7673 81.1228 16.2778 81.1228 16.8714C81.1228 17.465 81.2448 17.9873 81.4888 18.4385C81.7449 18.8777 82.0743 19.2161 82.4768 19.4535C82.8916 19.6909 83.3307 19.8097 83.7943 19.8097C84.27 19.8097 84.7152 19.6969 85.13 19.4713C85.5447 19.2339 85.8741 18.9015 86.1181 18.4741C86.362 18.0348 86.484 17.5125 86.484 16.907Z"
          fill="var(--color-green)"/>
    <path d="M94.1275 8.66203V21.8397H91.5659V8.66203H94.1275Z" fill="var(--color-green)"/>
    <path d="M106.082 16.6933C106.082 17.0495 106.057 17.37 106.009 17.6549H98.598C98.659 18.3672 98.9152 18.9252 99.3665 19.3288C99.8179 19.7325 100.373 19.9343 101.032 19.9343C101.983 19.9343 102.66 19.5366 103.063 18.7412H105.826C105.533 19.6909 104.972 20.4745 104.142 21.0918C103.313 21.6973 102.294 22 101.086 22C100.111 22 99.2323 21.7922 98.4516 21.3767C97.6831 20.9493 97.0793 20.3498 96.6402 19.5782C96.2132 18.8065 95.9998 17.9161 95.9998 16.907C95.9998 15.886 96.2132 14.9897 96.6402 14.218C97.0671 13.4464 97.6648 12.8528 98.4333 12.4373C99.2018 12.0217 100.086 11.814 101.086 11.814C102.05 11.814 102.91 12.0158 103.666 12.4195C104.435 12.8231 105.027 13.3989 105.441 14.1468C105.868 14.8829 106.082 15.7317 106.082 16.6933ZM103.429 15.981C103.416 15.3399 103.179 14.8294 102.715 14.4495C102.251 14.0578 101.684 13.8619 101.013 13.8619C100.379 13.8619 99.8422 14.0518 99.4031 14.4317C98.9762 14.7998 98.7139 15.3162 98.6163 15.981H103.429Z"
          fill="var(--color-green)"/>
    <path d="M107.293 16.8714C107.293 15.8741 107.494 14.9897 107.897 14.218C108.311 13.4464 108.866 12.8528 109.562 12.4373C110.269 12.0217 111.056 11.814 111.922 11.814C112.678 11.814 113.337 11.9624 113.898 12.2592C114.472 12.556 114.929 12.9299 115.271 13.3811V11.9743H117.851V21.8397H115.271V20.3973C114.941 20.8603 114.484 21.2461 113.898 21.5548C113.325 21.8516 112.66 22 111.904 22C111.05 22 110.269 21.7863 109.562 21.3589C108.866 20.9315 108.311 20.332 107.897 19.5603C107.494 18.7768 107.293 17.8805 107.293 16.8714ZM115.271 16.907C115.271 16.3015 115.149 15.7851 114.905 15.3577C114.661 14.9185 114.331 14.5861 113.917 14.3605C113.502 14.1231 113.057 14.0043 112.581 14.0043C112.105 14.0043 111.666 14.1171 111.263 14.3427C110.861 14.5683 110.531 14.9007 110.275 15.3399C110.031 15.7673 109.909 16.2778 109.909 16.8714C109.909 17.465 110.031 17.9873 110.275 18.4385C110.531 18.8777 110.861 19.2161 111.263 19.4535C111.678 19.6909 112.117 19.8097 112.581 19.8097C113.057 19.8097 113.502 19.6969 113.917 19.4713C114.331 19.2339 114.661 18.9015 114.905 18.4741C115.149 18.0348 115.271 17.5125 115.271 16.907Z"
          fill="var(--color-green)"/>
    <path d="M125 14.0221H123.225V21.8397H120.627V14.0221H119.474V11.9743H120.627V11.4756C120.627 10.2647 120.981 9.37434 121.688 8.80449C122.396 8.23464 123.463 7.96753 124.89 8.00314V10.1045C124.268 10.0926 123.835 10.1935 123.591 10.4072C123.347 10.6209 123.225 11.0067 123.225 11.5647V11.9743H125V14.0221Z"
          fill="var(--color-green)"/>
    <mask id="mask0_1034_247" style="mask-type:alpha" maskUnits="userSpaceOnUse" x="0" y="0" width="34" height="34">
        <circle cx="16.8067" cy="16.8067" r="16.8067" fill="#F578A5"/>
    </mask>

    <g mask="url(#mask0_1034_247)">
        <circle cx="16.8067" cy="16.8067" r="16.8067" fill="var(--color-green)"/>
        <path d="M9.0758 33.37V33.7376H9.44345H25.0323H25.3999V33.37V26.8289C25.3999 26.2281 24.9238 25.7354 24.3233 25.7149L10.2284 25.2344C9.59829 25.2129 9.0758 25.7179 9.0758 26.3484V33.37Z"
              fill="white" stroke="white" stroke-width="0.735294"/>
        <g clip-path="url(#clip0_1034_247)">
            <path d="M12.3139 11.8017C15.739 7.03946 14.2657 3.16313 14.2699 3.15854C14.1972 2.96441 14.2958 2.74821 14.4899 2.67559C14.5878 2.63896 14.6966 2.64486 14.79 2.69184C20.9717 5.64983 23.6318 9.46833 24.1412 12.9207C24.3437 14.262 24.2171 15.6324 23.7723 16.914C23.3648 18.0965 22.6859 19.1671 21.79 20.04C20.0669 21.7041 17.6588 22.4712 15.2821 21.6935C14.6742 21.4952 14.1005 21.2042 13.5813 20.8308C12.5399 20.0833 11.7499 19.0373 11.316 17.8311C10.8555 16.541 10.8409 15.1338 11.2744 13.8344C11.5138 13.1072 11.8645 12.4215 12.3139 11.8017Z"
                  fill="white"/>
            <path d="M14.3452 3.28133C14.1946 3.13892 14.188 2.90141 14.3304 2.75087C14.4728 2.60033 14.7103 2.59369 14.8609 2.7361C14.872 2.74658 14.8823 2.75771 14.8921 2.76947C14.9059 2.78188 17.8904 5.91035 18.3168 11.957L18.3213 12.0137C18.4133 13.427 18.3679 14.8458 18.1856 16.2503L20.2264 14.6863C20.3973 14.5691 20.6309 14.6127 20.7481 14.7836C20.8542 14.9383 20.8297 15.1476 20.6908 15.2737L18.0237 17.3114C17.4266 20.8217 15.3217 25.7878 18.1081 28.896C18.2423 29.054 18.2231 29.2908 18.0652 29.425C17.9148 29.5527 17.6913 29.5423 17.5536 29.401C14.2122 25.6766 16.6435 21.0628 17.3089 17.0729L17.3177 17.017C17.5883 15.4292 17.681 13.8163 17.5942 12.208L15.1953 10.4504C15.0242 10.3335 14.9804 10.0999 15.0973 9.92884C15.2143 9.75774 15.4478 9.71386 15.6189 9.83081C15.626 9.83566 15.6329 9.84073 15.6396 9.84607L17.4983 11.2145C16.9185 5.97293 14.3561 3.2939 14.3452 3.28133Z"
                  fill="var(--color-green)"/>
        </g>
    </g>

    <defs>
        <clipPath id="clip0_1034_247">
            <rect width="20.6274" height="20.6274" fill="white" transform="translate(1.98129 16.4659) rotate(-48)"/>
        </clipPath>
    </defs>
</svg>
